<mxfile host="app.diagrams.net" modified="2024-03-01T10:37:38.785Z" agent="Mozilla/5.0 (Windows NT 10.0; Win64; x64) AppleWebKit/537.36 (KHTML, like Gecko) Chrome/122.0.0.0 Safari/537.36" etag="gnwwa8dNWFkaJVeWZmsM" version="23.1.7" type="device">
  <diagram id="C5RBs43oDa-KdzZeNtuy" name="Page-1">
    <mxGraphModel dx="1195" dy="622" grid="1" gridSize="10" guides="1" tooltips="1" connect="1" arrows="1" fold="1" page="1" pageScale="1" pageWidth="827" pageHeight="1169" math="0" shadow="0">
      <root>
        <mxCell id="WIyWlLk6GJQsqaUBKTNV-0" />
        <mxCell id="WIyWlLk6GJQsqaUBKTNV-1" parent="WIyWlLk6GJQsqaUBKTNV-0" />
        <mxCell id="GhlGxq6gx5H_YgF2LxDl-124" value="Beverage" style="swimlane;fontStyle=1;align=center;verticalAlign=top;childLayout=stackLayout;horizontal=1;startSize=26;horizontalStack=0;resizeParent=1;resizeParentMax=0;resizeLast=0;collapsible=1;marginBottom=0;whiteSpace=wrap;html=1;" vertex="1" parent="WIyWlLk6GJQsqaUBKTNV-1">
          <mxGeometry x="350" y="160" width="160" height="112" as="geometry" />
        </mxCell>
        <mxCell id="GhlGxq6gx5H_YgF2LxDl-125" value="&amp;nbsp;description" style="text;strokeColor=none;fillColor=none;align=left;verticalAlign=top;spacingLeft=4;spacingRight=4;overflow=hidden;rotatable=0;points=[[0,0.5],[1,0.5]];portConstraint=eastwest;whiteSpace=wrap;html=1;" vertex="1" parent="GhlGxq6gx5H_YgF2LxDl-124">
          <mxGeometry y="26" width="160" height="26" as="geometry" />
        </mxCell>
        <mxCell id="GhlGxq6gx5H_YgF2LxDl-126" value="" style="line;strokeWidth=1;fillColor=none;align=left;verticalAlign=middle;spacingTop=-1;spacingLeft=3;spacingRight=3;rotatable=0;labelPosition=right;points=[];portConstraint=eastwest;strokeColor=inherit;" vertex="1" parent="GhlGxq6gx5H_YgF2LxDl-124">
          <mxGeometry y="52" width="160" height="8" as="geometry" />
        </mxCell>
        <mxCell id="GhlGxq6gx5H_YgF2LxDl-127" value="getDescription()" style="text;strokeColor=none;fillColor=none;align=left;verticalAlign=top;spacingLeft=4;spacingRight=4;overflow=hidden;rotatable=0;points=[[0,0.5],[1,0.5]];portConstraint=eastwest;whiteSpace=wrap;html=1;" vertex="1" parent="GhlGxq6gx5H_YgF2LxDl-124">
          <mxGeometry y="60" width="160" height="26" as="geometry" />
        </mxCell>
        <mxCell id="GhlGxq6gx5H_YgF2LxDl-128" value="cost()" style="text;strokeColor=none;fillColor=none;align=left;verticalAlign=top;spacingLeft=4;spacingRight=4;overflow=hidden;rotatable=0;points=[[0,0.5],[1,0.5]];portConstraint=eastwest;whiteSpace=wrap;html=1;" vertex="1" parent="GhlGxq6gx5H_YgF2LxDl-124">
          <mxGeometry y="86" width="160" height="26" as="geometry" />
        </mxCell>
        <mxCell id="GhlGxq6gx5H_YgF2LxDl-138" value="" style="endArrow=block;endSize=16;endFill=0;html=1;rounded=0;" edge="1" parent="WIyWlLk6GJQsqaUBKTNV-1" source="GhlGxq6gx5H_YgF2LxDl-129" target="GhlGxq6gx5H_YgF2LxDl-124">
          <mxGeometry width="160" relative="1" as="geometry">
            <mxPoint x="450" y="307.9999999999998" as="sourcePoint" />
            <mxPoint x="370" y="300" as="targetPoint" />
          </mxGeometry>
        </mxCell>
        <mxCell id="GhlGxq6gx5H_YgF2LxDl-216" value="" style="endArrow=block;endSize=16;endFill=0;html=1;rounded=0;" edge="1" parent="WIyWlLk6GJQsqaUBKTNV-1" source="GhlGxq6gx5H_YgF2LxDl-200" target="GhlGxq6gx5H_YgF2LxDl-124">
          <mxGeometry width="160" relative="1" as="geometry">
            <mxPoint x="299" y="350" as="sourcePoint" />
            <mxPoint x="376" y="282" as="targetPoint" />
          </mxGeometry>
        </mxCell>
        <mxCell id="GhlGxq6gx5H_YgF2LxDl-217" value="" style="endArrow=block;endSize=16;endFill=0;html=1;rounded=0;" edge="1" parent="WIyWlLk6GJQsqaUBKTNV-1" source="GhlGxq6gx5H_YgF2LxDl-205" target="GhlGxq6gx5H_YgF2LxDl-124">
          <mxGeometry width="160" relative="1" as="geometry">
            <mxPoint x="396" y="350" as="sourcePoint" />
            <mxPoint x="420" y="282" as="targetPoint" />
          </mxGeometry>
        </mxCell>
        <mxCell id="GhlGxq6gx5H_YgF2LxDl-218" value="" style="endArrow=block;endSize=16;endFill=0;html=1;rounded=0;" edge="1" parent="WIyWlLk6GJQsqaUBKTNV-1" source="GhlGxq6gx5H_YgF2LxDl-211" target="GhlGxq6gx5H_YgF2LxDl-124">
          <mxGeometry width="160" relative="1" as="geometry">
            <mxPoint x="492" y="350" as="sourcePoint" />
            <mxPoint x="464" y="282" as="targetPoint" />
          </mxGeometry>
        </mxCell>
        <mxCell id="GhlGxq6gx5H_YgF2LxDl-223" value="" style="group" vertex="1" connectable="0" parent="WIyWlLk6GJQsqaUBKTNV-1">
          <mxGeometry y="330" width="110" height="60" as="geometry" />
        </mxCell>
        <mxCell id="GhlGxq6gx5H_YgF2LxDl-219" value="" style="rounded=0;whiteSpace=wrap;html=1;" vertex="1" parent="GhlGxq6gx5H_YgF2LxDl-223">
          <mxGeometry width="110" height="60" as="geometry" />
        </mxCell>
        <mxCell id="GhlGxq6gx5H_YgF2LxDl-129" value="HouseBlend" style="swimlane;fontStyle=1;align=center;verticalAlign=top;childLayout=stackLayout;horizontal=1;startSize=26;horizontalStack=0;resizeParent=1;resizeParentMax=0;resizeLast=0;collapsible=1;marginBottom=0;whiteSpace=wrap;html=1;" vertex="1" parent="GhlGxq6gx5H_YgF2LxDl-223">
          <mxGeometry width="110" height="60" as="geometry" />
        </mxCell>
        <mxCell id="GhlGxq6gx5H_YgF2LxDl-131" value="" style="line;strokeWidth=1;fillColor=none;align=left;verticalAlign=middle;spacingTop=-1;spacingLeft=3;spacingRight=3;rotatable=0;labelPosition=right;points=[];portConstraint=eastwest;strokeColor=inherit;" vertex="1" parent="GhlGxq6gx5H_YgF2LxDl-129">
          <mxGeometry y="26" width="110" height="8" as="geometry" />
        </mxCell>
        <mxCell id="GhlGxq6gx5H_YgF2LxDl-132" value="cost()" style="text;strokeColor=none;fillColor=none;align=left;verticalAlign=top;spacingLeft=4;spacingRight=4;overflow=hidden;rotatable=0;points=[[0,0.5],[1,0.5]];portConstraint=eastwest;whiteSpace=wrap;html=1;" vertex="1" parent="GhlGxq6gx5H_YgF2LxDl-129">
          <mxGeometry y="34" width="110" height="26" as="geometry" />
        </mxCell>
        <mxCell id="GhlGxq6gx5H_YgF2LxDl-224" value="" style="group" vertex="1" connectable="0" parent="WIyWlLk6GJQsqaUBKTNV-1">
          <mxGeometry x="220" y="330" width="110" height="60" as="geometry" />
        </mxCell>
        <mxCell id="GhlGxq6gx5H_YgF2LxDl-220" value="" style="rounded=0;whiteSpace=wrap;html=1;" vertex="1" parent="GhlGxq6gx5H_YgF2LxDl-224">
          <mxGeometry width="110" height="60" as="geometry" />
        </mxCell>
        <mxCell id="GhlGxq6gx5H_YgF2LxDl-200" value="DarkRoast" style="swimlane;fontStyle=1;align=center;verticalAlign=top;childLayout=stackLayout;horizontal=1;startSize=26;horizontalStack=0;resizeParent=1;resizeParentMax=0;resizeLast=0;collapsible=1;marginBottom=0;whiteSpace=wrap;html=1;" vertex="1" parent="GhlGxq6gx5H_YgF2LxDl-224">
          <mxGeometry width="110" height="60" as="geometry" />
        </mxCell>
        <mxCell id="GhlGxq6gx5H_YgF2LxDl-202" value="" style="line;strokeWidth=1;fillColor=none;align=left;verticalAlign=middle;spacingTop=-1;spacingLeft=3;spacingRight=3;rotatable=0;labelPosition=right;points=[];portConstraint=eastwest;strokeColor=inherit;" vertex="1" parent="GhlGxq6gx5H_YgF2LxDl-200">
          <mxGeometry y="26" width="110" height="8" as="geometry" />
        </mxCell>
        <mxCell id="GhlGxq6gx5H_YgF2LxDl-203" value="cost()" style="text;strokeColor=none;fillColor=none;align=left;verticalAlign=top;spacingLeft=4;spacingRight=4;overflow=hidden;rotatable=0;points=[[0,0.5],[1,0.5]];portConstraint=eastwest;whiteSpace=wrap;html=1;" vertex="1" parent="GhlGxq6gx5H_YgF2LxDl-200">
          <mxGeometry y="34" width="110" height="26" as="geometry" />
        </mxCell>
        <mxCell id="GhlGxq6gx5H_YgF2LxDl-225" value="" style="group" vertex="1" connectable="0" parent="WIyWlLk6GJQsqaUBKTNV-1">
          <mxGeometry x="440" y="330" width="110" height="60" as="geometry" />
        </mxCell>
        <mxCell id="GhlGxq6gx5H_YgF2LxDl-221" value="" style="rounded=0;whiteSpace=wrap;html=1;" vertex="1" parent="GhlGxq6gx5H_YgF2LxDl-225">
          <mxGeometry width="110" height="60" as="geometry" />
        </mxCell>
        <mxCell id="GhlGxq6gx5H_YgF2LxDl-205" value="Decaf" style="swimlane;fontStyle=1;align=center;verticalAlign=top;childLayout=stackLayout;horizontal=1;startSize=26;horizontalStack=0;resizeParent=1;resizeParentMax=0;resizeLast=0;collapsible=1;marginBottom=0;whiteSpace=wrap;html=1;" vertex="1" parent="GhlGxq6gx5H_YgF2LxDl-225">
          <mxGeometry width="110" height="60" as="geometry" />
        </mxCell>
        <mxCell id="GhlGxq6gx5H_YgF2LxDl-207" value="" style="line;strokeWidth=1;fillColor=none;align=left;verticalAlign=middle;spacingTop=-1;spacingLeft=3;spacingRight=3;rotatable=0;labelPosition=right;points=[];portConstraint=eastwest;strokeColor=inherit;" vertex="1" parent="GhlGxq6gx5H_YgF2LxDl-205">
          <mxGeometry y="26" width="110" height="8" as="geometry" />
        </mxCell>
        <mxCell id="GhlGxq6gx5H_YgF2LxDl-208" value="cost()" style="text;strokeColor=none;fillColor=none;align=left;verticalAlign=top;spacingLeft=4;spacingRight=4;overflow=hidden;rotatable=0;points=[[0,0.5],[1,0.5]];portConstraint=eastwest;whiteSpace=wrap;html=1;" vertex="1" parent="GhlGxq6gx5H_YgF2LxDl-205">
          <mxGeometry y="34" width="110" height="26" as="geometry" />
        </mxCell>
        <mxCell id="GhlGxq6gx5H_YgF2LxDl-226" value="" style="group" vertex="1" connectable="0" parent="WIyWlLk6GJQsqaUBKTNV-1">
          <mxGeometry x="660" y="330" width="110" height="60" as="geometry" />
        </mxCell>
        <mxCell id="GhlGxq6gx5H_YgF2LxDl-222" value="" style="rounded=0;whiteSpace=wrap;html=1;" vertex="1" parent="GhlGxq6gx5H_YgF2LxDl-226">
          <mxGeometry width="110" height="60" as="geometry" />
        </mxCell>
        <mxCell id="GhlGxq6gx5H_YgF2LxDl-211" value="Espresso" style="swimlane;fontStyle=1;align=center;verticalAlign=top;childLayout=stackLayout;horizontal=1;startSize=26;horizontalStack=0;resizeParent=1;resizeParentMax=0;resizeLast=0;collapsible=1;marginBottom=0;whiteSpace=wrap;html=1;" vertex="1" parent="GhlGxq6gx5H_YgF2LxDl-226">
          <mxGeometry width="110" height="60" as="geometry" />
        </mxCell>
        <mxCell id="GhlGxq6gx5H_YgF2LxDl-213" value="" style="line;strokeWidth=1;fillColor=none;align=left;verticalAlign=middle;spacingTop=-1;spacingLeft=3;spacingRight=3;rotatable=0;labelPosition=right;points=[];portConstraint=eastwest;strokeColor=inherit;" vertex="1" parent="GhlGxq6gx5H_YgF2LxDl-211">
          <mxGeometry y="26" width="110" height="8" as="geometry" />
        </mxCell>
        <mxCell id="GhlGxq6gx5H_YgF2LxDl-214" value="cost()" style="text;strokeColor=none;fillColor=none;align=left;verticalAlign=top;spacingLeft=4;spacingRight=4;overflow=hidden;rotatable=0;points=[[0,0.5],[1,0.5]];portConstraint=eastwest;whiteSpace=wrap;html=1;" vertex="1" parent="GhlGxq6gx5H_YgF2LxDl-211">
          <mxGeometry y="34" width="110" height="26" as="geometry" />
        </mxCell>
        <mxCell id="GhlGxq6gx5H_YgF2LxDl-227" value="" style="group" vertex="1" connectable="0" parent="WIyWlLk6GJQsqaUBKTNV-1">
          <mxGeometry x="10" y="350" width="180" height="60" as="geometry" />
        </mxCell>
        <mxCell id="GhlGxq6gx5H_YgF2LxDl-228" value="" style="rounded=0;whiteSpace=wrap;html=1;" vertex="1" parent="GhlGxq6gx5H_YgF2LxDl-227">
          <mxGeometry width="180" height="60" as="geometry" />
        </mxCell>
        <mxCell id="GhlGxq6gx5H_YgF2LxDl-229" value="HouseBlendWithSteamedMilk" style="swimlane;fontStyle=1;align=center;verticalAlign=top;childLayout=stackLayout;horizontal=1;startSize=26;horizontalStack=0;resizeParent=1;resizeParentMax=0;resizeLast=0;collapsible=1;marginBottom=0;whiteSpace=wrap;html=1;" vertex="1" parent="GhlGxq6gx5H_YgF2LxDl-227">
          <mxGeometry width="180" height="60" as="geometry" />
        </mxCell>
        <mxCell id="GhlGxq6gx5H_YgF2LxDl-230" value="" style="line;strokeWidth=1;fillColor=none;align=left;verticalAlign=middle;spacingTop=-1;spacingLeft=3;spacingRight=3;rotatable=0;labelPosition=right;points=[];portConstraint=eastwest;strokeColor=inherit;" vertex="1" parent="GhlGxq6gx5H_YgF2LxDl-229">
          <mxGeometry y="26" width="180" height="8" as="geometry" />
        </mxCell>
        <mxCell id="GhlGxq6gx5H_YgF2LxDl-231" value="cost()" style="text;strokeColor=none;fillColor=none;align=left;verticalAlign=top;spacingLeft=4;spacingRight=4;overflow=hidden;rotatable=0;points=[[0,0.5],[1,0.5]];portConstraint=eastwest;whiteSpace=wrap;html=1;" vertex="1" parent="GhlGxq6gx5H_YgF2LxDl-229">
          <mxGeometry y="34" width="180" height="26" as="geometry" />
        </mxCell>
        <mxCell id="GhlGxq6gx5H_YgF2LxDl-237" value="" style="group" vertex="1" connectable="0" parent="WIyWlLk6GJQsqaUBKTNV-1">
          <mxGeometry x="20" y="370" width="180" height="80" as="geometry" />
        </mxCell>
        <mxCell id="GhlGxq6gx5H_YgF2LxDl-233" value="" style="rounded=0;whiteSpace=wrap;html=1;" vertex="1" parent="GhlGxq6gx5H_YgF2LxDl-237">
          <mxGeometry width="180" height="80" as="geometry" />
        </mxCell>
        <mxCell id="GhlGxq6gx5H_YgF2LxDl-234" value="HouseBlendWithSteamedMilk&lt;br&gt;AndCaramel" style="swimlane;fontStyle=1;align=center;verticalAlign=top;childLayout=stackLayout;horizontal=1;startSize=40;horizontalStack=0;resizeParent=1;resizeParentMax=0;resizeLast=0;collapsible=1;marginBottom=0;whiteSpace=wrap;html=1;" vertex="1" parent="GhlGxq6gx5H_YgF2LxDl-237">
          <mxGeometry width="180" height="79.99666666666667" as="geometry" />
        </mxCell>
        <mxCell id="GhlGxq6gx5H_YgF2LxDl-235" value="" style="line;strokeWidth=1;fillColor=none;align=left;verticalAlign=middle;spacingTop=-1;spacingLeft=3;spacingRight=3;rotatable=0;labelPosition=right;points=[];portConstraint=eastwest;strokeColor=inherit;" vertex="1" parent="GhlGxq6gx5H_YgF2LxDl-234">
          <mxGeometry y="40" width="180" height="10.666666666666666" as="geometry" />
        </mxCell>
        <mxCell id="GhlGxq6gx5H_YgF2LxDl-236" value="cost()" style="text;strokeColor=none;fillColor=none;align=left;verticalAlign=top;spacingLeft=4;spacingRight=4;overflow=hidden;rotatable=0;points=[[0,0.5],[1,0.5]];portConstraint=eastwest;whiteSpace=wrap;html=1;" vertex="1" parent="GhlGxq6gx5H_YgF2LxDl-234">
          <mxGeometry y="50.666666666666664" width="180" height="29.33" as="geometry" />
        </mxCell>
        <mxCell id="GhlGxq6gx5H_YgF2LxDl-238" value="" style="group" vertex="1" connectable="0" parent="WIyWlLk6GJQsqaUBKTNV-1">
          <mxGeometry x="30" y="400" width="180" height="80" as="geometry" />
        </mxCell>
        <mxCell id="GhlGxq6gx5H_YgF2LxDl-239" value="" style="rounded=0;whiteSpace=wrap;html=1;" vertex="1" parent="GhlGxq6gx5H_YgF2LxDl-238">
          <mxGeometry width="180" height="80" as="geometry" />
        </mxCell>
        <mxCell id="GhlGxq6gx5H_YgF2LxDl-240" value="HouseBlendWithSteamedMilk&lt;br&gt;AndSoy" style="swimlane;fontStyle=1;align=center;verticalAlign=top;childLayout=stackLayout;horizontal=1;startSize=40;horizontalStack=0;resizeParent=1;resizeParentMax=0;resizeLast=0;collapsible=1;marginBottom=0;whiteSpace=wrap;html=1;" vertex="1" parent="GhlGxq6gx5H_YgF2LxDl-238">
          <mxGeometry width="180" height="79.99666666666667" as="geometry" />
        </mxCell>
        <mxCell id="GhlGxq6gx5H_YgF2LxDl-241" value="" style="line;strokeWidth=1;fillColor=none;align=left;verticalAlign=middle;spacingTop=-1;spacingLeft=3;spacingRight=3;rotatable=0;labelPosition=right;points=[];portConstraint=eastwest;strokeColor=inherit;" vertex="1" parent="GhlGxq6gx5H_YgF2LxDl-240">
          <mxGeometry y="40" width="180" height="10.666666666666666" as="geometry" />
        </mxCell>
        <mxCell id="GhlGxq6gx5H_YgF2LxDl-242" value="cost()" style="text;strokeColor=none;fillColor=none;align=left;verticalAlign=top;spacingLeft=4;spacingRight=4;overflow=hidden;rotatable=0;points=[[0,0.5],[1,0.5]];portConstraint=eastwest;whiteSpace=wrap;html=1;" vertex="1" parent="GhlGxq6gx5H_YgF2LxDl-240">
          <mxGeometry y="50.666666666666664" width="180" height="29.33" as="geometry" />
        </mxCell>
        <mxCell id="GhlGxq6gx5H_YgF2LxDl-243" value="" style="group" vertex="1" connectable="0" parent="WIyWlLk6GJQsqaUBKTNV-1">
          <mxGeometry x="230" y="350" width="180" height="60" as="geometry" />
        </mxCell>
        <mxCell id="GhlGxq6gx5H_YgF2LxDl-244" value="" style="rounded=0;whiteSpace=wrap;html=1;" vertex="1" parent="GhlGxq6gx5H_YgF2LxDl-243">
          <mxGeometry width="180" height="60" as="geometry" />
        </mxCell>
        <mxCell id="GhlGxq6gx5H_YgF2LxDl-245" value="DarkRoastWithSteamedMilk" style="swimlane;fontStyle=1;align=center;verticalAlign=top;childLayout=stackLayout;horizontal=1;startSize=26;horizontalStack=0;resizeParent=1;resizeParentMax=0;resizeLast=0;collapsible=1;marginBottom=0;whiteSpace=wrap;html=1;" vertex="1" parent="GhlGxq6gx5H_YgF2LxDl-243">
          <mxGeometry width="180" height="60" as="geometry" />
        </mxCell>
        <mxCell id="GhlGxq6gx5H_YgF2LxDl-246" value="" style="line;strokeWidth=1;fillColor=none;align=left;verticalAlign=middle;spacingTop=-1;spacingLeft=3;spacingRight=3;rotatable=0;labelPosition=right;points=[];portConstraint=eastwest;strokeColor=inherit;" vertex="1" parent="GhlGxq6gx5H_YgF2LxDl-245">
          <mxGeometry y="26" width="180" height="8" as="geometry" />
        </mxCell>
        <mxCell id="GhlGxq6gx5H_YgF2LxDl-247" value="cost()" style="text;strokeColor=none;fillColor=none;align=left;verticalAlign=top;spacingLeft=4;spacingRight=4;overflow=hidden;rotatable=0;points=[[0,0.5],[1,0.5]];portConstraint=eastwest;whiteSpace=wrap;html=1;" vertex="1" parent="GhlGxq6gx5H_YgF2LxDl-245">
          <mxGeometry y="34" width="180" height="26" as="geometry" />
        </mxCell>
        <mxCell id="GhlGxq6gx5H_YgF2LxDl-248" value="" style="group" vertex="1" connectable="0" parent="WIyWlLk6GJQsqaUBKTNV-1">
          <mxGeometry x="240" y="370" width="180" height="80" as="geometry" />
        </mxCell>
        <mxCell id="GhlGxq6gx5H_YgF2LxDl-249" value="" style="rounded=0;whiteSpace=wrap;html=1;" vertex="1" parent="GhlGxq6gx5H_YgF2LxDl-248">
          <mxGeometry width="180" height="80" as="geometry" />
        </mxCell>
        <mxCell id="GhlGxq6gx5H_YgF2LxDl-250" value="DarkRoastWithSteamedMilk&lt;br&gt;AndCaramel" style="swimlane;fontStyle=1;align=center;verticalAlign=top;childLayout=stackLayout;horizontal=1;startSize=40;horizontalStack=0;resizeParent=1;resizeParentMax=0;resizeLast=0;collapsible=1;marginBottom=0;whiteSpace=wrap;html=1;" vertex="1" parent="GhlGxq6gx5H_YgF2LxDl-248">
          <mxGeometry width="180" height="79.99666666666667" as="geometry" />
        </mxCell>
        <mxCell id="GhlGxq6gx5H_YgF2LxDl-251" value="" style="line;strokeWidth=1;fillColor=none;align=left;verticalAlign=middle;spacingTop=-1;spacingLeft=3;spacingRight=3;rotatable=0;labelPosition=right;points=[];portConstraint=eastwest;strokeColor=inherit;" vertex="1" parent="GhlGxq6gx5H_YgF2LxDl-250">
          <mxGeometry y="40" width="180" height="10.666666666666666" as="geometry" />
        </mxCell>
        <mxCell id="GhlGxq6gx5H_YgF2LxDl-252" value="cost()" style="text;strokeColor=none;fillColor=none;align=left;verticalAlign=top;spacingLeft=4;spacingRight=4;overflow=hidden;rotatable=0;points=[[0,0.5],[1,0.5]];portConstraint=eastwest;whiteSpace=wrap;html=1;" vertex="1" parent="GhlGxq6gx5H_YgF2LxDl-250">
          <mxGeometry y="50.666666666666664" width="180" height="29.33" as="geometry" />
        </mxCell>
        <mxCell id="GhlGxq6gx5H_YgF2LxDl-253" value="" style="group" vertex="1" connectable="0" parent="WIyWlLk6GJQsqaUBKTNV-1">
          <mxGeometry x="250" y="400" width="180" height="80" as="geometry" />
        </mxCell>
        <mxCell id="GhlGxq6gx5H_YgF2LxDl-254" value="" style="rounded=0;whiteSpace=wrap;html=1;" vertex="1" parent="GhlGxq6gx5H_YgF2LxDl-253">
          <mxGeometry width="180" height="80" as="geometry" />
        </mxCell>
        <mxCell id="GhlGxq6gx5H_YgF2LxDl-255" value="DarkRoastWithSteamedMilk&lt;br&gt;AndSoy" style="swimlane;fontStyle=1;align=center;verticalAlign=top;childLayout=stackLayout;horizontal=1;startSize=40;horizontalStack=0;resizeParent=1;resizeParentMax=0;resizeLast=0;collapsible=1;marginBottom=0;whiteSpace=wrap;html=1;" vertex="1" parent="GhlGxq6gx5H_YgF2LxDl-253">
          <mxGeometry width="180" height="79.99666666666667" as="geometry" />
        </mxCell>
        <mxCell id="GhlGxq6gx5H_YgF2LxDl-256" value="" style="line;strokeWidth=1;fillColor=none;align=left;verticalAlign=middle;spacingTop=-1;spacingLeft=3;spacingRight=3;rotatable=0;labelPosition=right;points=[];portConstraint=eastwest;strokeColor=inherit;" vertex="1" parent="GhlGxq6gx5H_YgF2LxDl-255">
          <mxGeometry y="40" width="180" height="10.666666666666666" as="geometry" />
        </mxCell>
        <mxCell id="GhlGxq6gx5H_YgF2LxDl-257" value="cost()" style="text;strokeColor=none;fillColor=none;align=left;verticalAlign=top;spacingLeft=4;spacingRight=4;overflow=hidden;rotatable=0;points=[[0,0.5],[1,0.5]];portConstraint=eastwest;whiteSpace=wrap;html=1;" vertex="1" parent="GhlGxq6gx5H_YgF2LxDl-255">
          <mxGeometry y="50.666666666666664" width="180" height="29.33" as="geometry" />
        </mxCell>
        <mxCell id="GhlGxq6gx5H_YgF2LxDl-258" value="" style="group" vertex="1" connectable="0" parent="WIyWlLk6GJQsqaUBKTNV-1">
          <mxGeometry x="450" y="350" width="180" height="60" as="geometry" />
        </mxCell>
        <mxCell id="GhlGxq6gx5H_YgF2LxDl-259" value="" style="rounded=0;whiteSpace=wrap;html=1;" vertex="1" parent="GhlGxq6gx5H_YgF2LxDl-258">
          <mxGeometry width="180" height="60" as="geometry" />
        </mxCell>
        <mxCell id="GhlGxq6gx5H_YgF2LxDl-260" value="DecafWithSteamedMilk" style="swimlane;fontStyle=1;align=center;verticalAlign=top;childLayout=stackLayout;horizontal=1;startSize=26;horizontalStack=0;resizeParent=1;resizeParentMax=0;resizeLast=0;collapsible=1;marginBottom=0;whiteSpace=wrap;html=1;" vertex="1" parent="GhlGxq6gx5H_YgF2LxDl-258">
          <mxGeometry width="180" height="60" as="geometry" />
        </mxCell>
        <mxCell id="GhlGxq6gx5H_YgF2LxDl-261" value="" style="line;strokeWidth=1;fillColor=none;align=left;verticalAlign=middle;spacingTop=-1;spacingLeft=3;spacingRight=3;rotatable=0;labelPosition=right;points=[];portConstraint=eastwest;strokeColor=inherit;" vertex="1" parent="GhlGxq6gx5H_YgF2LxDl-260">
          <mxGeometry y="26" width="180" height="8" as="geometry" />
        </mxCell>
        <mxCell id="GhlGxq6gx5H_YgF2LxDl-262" value="cost()" style="text;strokeColor=none;fillColor=none;align=left;verticalAlign=top;spacingLeft=4;spacingRight=4;overflow=hidden;rotatable=0;points=[[0,0.5],[1,0.5]];portConstraint=eastwest;whiteSpace=wrap;html=1;" vertex="1" parent="GhlGxq6gx5H_YgF2LxDl-260">
          <mxGeometry y="34" width="180" height="26" as="geometry" />
        </mxCell>
        <mxCell id="GhlGxq6gx5H_YgF2LxDl-263" value="" style="group" vertex="1" connectable="0" parent="WIyWlLk6GJQsqaUBKTNV-1">
          <mxGeometry x="460" y="370" width="180" height="80" as="geometry" />
        </mxCell>
        <mxCell id="GhlGxq6gx5H_YgF2LxDl-264" value="" style="rounded=0;whiteSpace=wrap;html=1;" vertex="1" parent="GhlGxq6gx5H_YgF2LxDl-263">
          <mxGeometry width="180" height="80" as="geometry" />
        </mxCell>
        <mxCell id="GhlGxq6gx5H_YgF2LxDl-265" value="DecafWithSteamedMilk&lt;br&gt;AndCaramel" style="swimlane;fontStyle=1;align=center;verticalAlign=top;childLayout=stackLayout;horizontal=1;startSize=40;horizontalStack=0;resizeParent=1;resizeParentMax=0;resizeLast=0;collapsible=1;marginBottom=0;whiteSpace=wrap;html=1;" vertex="1" parent="GhlGxq6gx5H_YgF2LxDl-263">
          <mxGeometry width="180" height="79.99666666666667" as="geometry" />
        </mxCell>
        <mxCell id="GhlGxq6gx5H_YgF2LxDl-266" value="" style="line;strokeWidth=1;fillColor=none;align=left;verticalAlign=middle;spacingTop=-1;spacingLeft=3;spacingRight=3;rotatable=0;labelPosition=right;points=[];portConstraint=eastwest;strokeColor=inherit;" vertex="1" parent="GhlGxq6gx5H_YgF2LxDl-265">
          <mxGeometry y="40" width="180" height="10.666666666666666" as="geometry" />
        </mxCell>
        <mxCell id="GhlGxq6gx5H_YgF2LxDl-267" value="cost()" style="text;strokeColor=none;fillColor=none;align=left;verticalAlign=top;spacingLeft=4;spacingRight=4;overflow=hidden;rotatable=0;points=[[0,0.5],[1,0.5]];portConstraint=eastwest;whiteSpace=wrap;html=1;" vertex="1" parent="GhlGxq6gx5H_YgF2LxDl-265">
          <mxGeometry y="50.666666666666664" width="180" height="29.33" as="geometry" />
        </mxCell>
        <mxCell id="GhlGxq6gx5H_YgF2LxDl-268" value="" style="group" vertex="1" connectable="0" parent="WIyWlLk6GJQsqaUBKTNV-1">
          <mxGeometry x="470" y="400" width="180" height="80" as="geometry" />
        </mxCell>
        <mxCell id="GhlGxq6gx5H_YgF2LxDl-269" value="" style="rounded=0;whiteSpace=wrap;html=1;" vertex="1" parent="GhlGxq6gx5H_YgF2LxDl-268">
          <mxGeometry width="180" height="80" as="geometry" />
        </mxCell>
        <mxCell id="GhlGxq6gx5H_YgF2LxDl-270" value="DecafWithSteamedMilk&lt;br&gt;AndSoy" style="swimlane;fontStyle=1;align=center;verticalAlign=top;childLayout=stackLayout;horizontal=1;startSize=40;horizontalStack=0;resizeParent=1;resizeParentMax=0;resizeLast=0;collapsible=1;marginBottom=0;whiteSpace=wrap;html=1;" vertex="1" parent="GhlGxq6gx5H_YgF2LxDl-268">
          <mxGeometry width="180" height="79.99666666666667" as="geometry" />
        </mxCell>
        <mxCell id="GhlGxq6gx5H_YgF2LxDl-271" value="" style="line;strokeWidth=1;fillColor=none;align=left;verticalAlign=middle;spacingTop=-1;spacingLeft=3;spacingRight=3;rotatable=0;labelPosition=right;points=[];portConstraint=eastwest;strokeColor=inherit;" vertex="1" parent="GhlGxq6gx5H_YgF2LxDl-270">
          <mxGeometry y="40" width="180" height="10.666666666666666" as="geometry" />
        </mxCell>
        <mxCell id="GhlGxq6gx5H_YgF2LxDl-272" value="cost()" style="text;strokeColor=none;fillColor=none;align=left;verticalAlign=top;spacingLeft=4;spacingRight=4;overflow=hidden;rotatable=0;points=[[0,0.5],[1,0.5]];portConstraint=eastwest;whiteSpace=wrap;html=1;" vertex="1" parent="GhlGxq6gx5H_YgF2LxDl-270">
          <mxGeometry y="50.666666666666664" width="180" height="29.33" as="geometry" />
        </mxCell>
        <mxCell id="GhlGxq6gx5H_YgF2LxDl-274" value="" style="group" vertex="1" connectable="0" parent="WIyWlLk6GJQsqaUBKTNV-1">
          <mxGeometry x="670" y="350" width="180" height="60" as="geometry" />
        </mxCell>
        <mxCell id="GhlGxq6gx5H_YgF2LxDl-275" value="" style="rounded=0;whiteSpace=wrap;html=1;" vertex="1" parent="GhlGxq6gx5H_YgF2LxDl-274">
          <mxGeometry width="180" height="60" as="geometry" />
        </mxCell>
        <mxCell id="GhlGxq6gx5H_YgF2LxDl-276" value="EspressoWithSteamedMilk" style="swimlane;fontStyle=1;align=center;verticalAlign=top;childLayout=stackLayout;horizontal=1;startSize=26;horizontalStack=0;resizeParent=1;resizeParentMax=0;resizeLast=0;collapsible=1;marginBottom=0;whiteSpace=wrap;html=1;" vertex="1" parent="GhlGxq6gx5H_YgF2LxDl-274">
          <mxGeometry width="180" height="60" as="geometry" />
        </mxCell>
        <mxCell id="GhlGxq6gx5H_YgF2LxDl-277" value="" style="line;strokeWidth=1;fillColor=none;align=left;verticalAlign=middle;spacingTop=-1;spacingLeft=3;spacingRight=3;rotatable=0;labelPosition=right;points=[];portConstraint=eastwest;strokeColor=inherit;" vertex="1" parent="GhlGxq6gx5H_YgF2LxDl-276">
          <mxGeometry y="26" width="180" height="8" as="geometry" />
        </mxCell>
        <mxCell id="GhlGxq6gx5H_YgF2LxDl-278" value="cost()" style="text;strokeColor=none;fillColor=none;align=left;verticalAlign=top;spacingLeft=4;spacingRight=4;overflow=hidden;rotatable=0;points=[[0,0.5],[1,0.5]];portConstraint=eastwest;whiteSpace=wrap;html=1;" vertex="1" parent="GhlGxq6gx5H_YgF2LxDl-276">
          <mxGeometry y="34" width="180" height="26" as="geometry" />
        </mxCell>
        <mxCell id="GhlGxq6gx5H_YgF2LxDl-279" value="" style="group" vertex="1" connectable="0" parent="WIyWlLk6GJQsqaUBKTNV-1">
          <mxGeometry x="680" y="370" width="180" height="80" as="geometry" />
        </mxCell>
        <mxCell id="GhlGxq6gx5H_YgF2LxDl-280" value="" style="rounded=0;whiteSpace=wrap;html=1;" vertex="1" parent="GhlGxq6gx5H_YgF2LxDl-279">
          <mxGeometry width="180" height="80" as="geometry" />
        </mxCell>
        <mxCell id="GhlGxq6gx5H_YgF2LxDl-281" value="EspressoWithSteamedMilk&lt;br&gt;AndCaramel" style="swimlane;fontStyle=1;align=center;verticalAlign=top;childLayout=stackLayout;horizontal=1;startSize=40;horizontalStack=0;resizeParent=1;resizeParentMax=0;resizeLast=0;collapsible=1;marginBottom=0;whiteSpace=wrap;html=1;" vertex="1" parent="GhlGxq6gx5H_YgF2LxDl-279">
          <mxGeometry width="180" height="79.99666666666667" as="geometry" />
        </mxCell>
        <mxCell id="GhlGxq6gx5H_YgF2LxDl-282" value="" style="line;strokeWidth=1;fillColor=none;align=left;verticalAlign=middle;spacingTop=-1;spacingLeft=3;spacingRight=3;rotatable=0;labelPosition=right;points=[];portConstraint=eastwest;strokeColor=inherit;" vertex="1" parent="GhlGxq6gx5H_YgF2LxDl-281">
          <mxGeometry y="40" width="180" height="10.666666666666666" as="geometry" />
        </mxCell>
        <mxCell id="GhlGxq6gx5H_YgF2LxDl-283" value="cost()" style="text;strokeColor=none;fillColor=none;align=left;verticalAlign=top;spacingLeft=4;spacingRight=4;overflow=hidden;rotatable=0;points=[[0,0.5],[1,0.5]];portConstraint=eastwest;whiteSpace=wrap;html=1;" vertex="1" parent="GhlGxq6gx5H_YgF2LxDl-281">
          <mxGeometry y="50.666666666666664" width="180" height="29.33" as="geometry" />
        </mxCell>
        <mxCell id="GhlGxq6gx5H_YgF2LxDl-284" value="" style="group" vertex="1" connectable="0" parent="WIyWlLk6GJQsqaUBKTNV-1">
          <mxGeometry x="690" y="400" width="180" height="80" as="geometry" />
        </mxCell>
        <mxCell id="GhlGxq6gx5H_YgF2LxDl-285" value="" style="rounded=0;whiteSpace=wrap;html=1;" vertex="1" parent="GhlGxq6gx5H_YgF2LxDl-284">
          <mxGeometry width="180" height="80" as="geometry" />
        </mxCell>
        <mxCell id="GhlGxq6gx5H_YgF2LxDl-286" value="EspressoWithSteamedMilk&lt;br&gt;AndSoy" style="swimlane;fontStyle=1;align=center;verticalAlign=top;childLayout=stackLayout;horizontal=1;startSize=40;horizontalStack=0;resizeParent=1;resizeParentMax=0;resizeLast=0;collapsible=1;marginBottom=0;whiteSpace=wrap;html=1;" vertex="1" parent="GhlGxq6gx5H_YgF2LxDl-284">
          <mxGeometry width="180" height="79.99666666666667" as="geometry" />
        </mxCell>
        <mxCell id="GhlGxq6gx5H_YgF2LxDl-287" value="" style="line;strokeWidth=1;fillColor=none;align=left;verticalAlign=middle;spacingTop=-1;spacingLeft=3;spacingRight=3;rotatable=0;labelPosition=right;points=[];portConstraint=eastwest;strokeColor=inherit;" vertex="1" parent="GhlGxq6gx5H_YgF2LxDl-286">
          <mxGeometry y="40" width="180" height="10.666666666666666" as="geometry" />
        </mxCell>
        <mxCell id="GhlGxq6gx5H_YgF2LxDl-288" value="cost()" style="text;strokeColor=none;fillColor=none;align=left;verticalAlign=top;spacingLeft=4;spacingRight=4;overflow=hidden;rotatable=0;points=[[0,0.5],[1,0.5]];portConstraint=eastwest;whiteSpace=wrap;html=1;" vertex="1" parent="GhlGxq6gx5H_YgF2LxDl-286">
          <mxGeometry y="50.666666666666664" width="180" height="29.33" as="geometry" />
        </mxCell>
      </root>
    </mxGraphModel>
  </diagram>
</mxfile>
